<svg width="32" height="32" viewBox="0 0 32 32" fill="none" xmlns="http://www.w3.org/2000/svg">
  <!-- Background circle with gradient -->
  <defs>
    <linearGradient id="bgGradient" x1="0%" y1="0%" x2="100%" y2="100%">
      <stop offset="0%" style="stop-color:#8B4513;stop-opacity:1" />
      <stop offset="100%" style="stop-color:#A0522D;stop-opacity:1" />
    </linearGradient>
  </defs>
  <circle cx="16" cy="16" r="16" fill="url(#bgGradient)"/>
  
  <!-- Main chat bubble -->
  <path d="M7 10C7 7.79086 8.79086 6 11 6H21C23.2091 6 25 7.79086 25 10V16C25 18.2091 23.2091 20 21 20H17L13 24V20H11C8.79086 20 7 18.2091 7 16V10Z" fill="white" stroke="#8B4513" stroke-width="0.5"/>
  
  <!-- Chat message lines -->
  <rect x="10" y="12" width="8" height="1" rx="0.5" fill="#8B4513"/>
  <rect x="10" y="14" width="6" height="1" rx="0.5" fill="#8B4513"/>
  <rect x="10" y="16" width="7" height="1" rx="0.5" fill="#8B4513"/>
  
  <!-- Small chat bubble -->
  <path d="M20 18C20 17.4477 20.4477 17 21 17H23C23.5523 17 24 17.4477 24 18V19C24 19.5523 23.5523 20 23 20H21.5L21 20.5V20H21C20.4477 20 20 19.5523 20 19V18Z" fill="#D2B48C"/>
  
  <!-- Small dot in second bubble -->
  <circle cx="22" cy="18.5" r="0.5" fill="#8B4513"/>
</svg>
